<svg width="26" height="19" viewBox="0 0 26 19" fill="none" xmlns="http://www.w3.org/2000/svg">
<path d="M25.2518 2.32732C24.3768 2.67394 23.3768 2.90503 22.3768 3.02057C23.3768 2.44287 24.2518 1.51856 24.6268 0.478702C23.6268 1.0564 22.6268 1.40302 21.3768 1.6341C20.5018 0.709781 19.1268 0.13208 17.7518 0.13208C15.0018 0.13208 12.7518 2.21179 12.7518 4.75366C12.7518 5.10028 12.7518 5.44689 12.8768 5.79351C8.75183 5.56243 5.00183 3.7138 2.50182 0.940853C2.12682 1.63409 1.87682 2.44287 1.87682 3.25164C1.87682 4.8692 2.75183 6.25567 4.12683 7.06445C3.25183 7.06445 2.50182 6.83337 1.87682 6.48675C1.87682 8.682 3.62682 10.6462 5.87682 10.9928C5.50182 11.1083 5.00183 11.1083 4.50183 11.1083C4.12683 11.1083 3.87683 11.1083 3.50183 10.9928C4.12683 12.8414 6.00183 14.2279 8.25183 14.2279C6.50183 15.4988 4.37683 16.1921 2.00183 16.1921C1.62683 16.1921 1.25183 16.1921 0.751831 16.0765C3.00183 17.3475 5.62683 18.1562 8.50183 18.1562C17.7518 18.1562 22.7518 11.1083 22.7518 4.98474V4.40704C23.7518 4.06042 24.6268 3.25164 25.2518 2.32732Z" fill="#8253D8"/>
</svg>
