<svg width="157" height="29" fill="none" xmlns="http://www.w3.org/2000/svg"><path d="M6.472 11.664L4.744 27H.352L3.808.54l10.332 17.1L24.508.54 27.964 27h-4.392l-1.728-15.336L14.14 24.66 6.472 11.664zM30.657 14.4c0-1.872.324-3.6.972-5.184.648-1.608 1.56-2.988 2.736-4.14A12.863 12.863 0 0138.54 2.34c1.584-.648 3.312-.972 5.184-.972 1.872 0 3.6.324 5.184.972 1.608.648 3 1.56 4.176 2.736 1.2 1.152 2.124 2.532 2.772 4.14.648 1.584.972 3.312.972 5.184 0 1.872-.324 3.612-.972 5.22a12.863 12.863 0 01-2.736 4.176c-1.176 1.176-2.568 2.1-4.176 2.772-1.584.648-3.324.972-5.22.972s-3.636-.324-5.22-.972a12.933 12.933 0 01-4.14-2.772 12.863 12.863 0 01-2.736-4.176c-.648-1.608-.972-3.348-.972-5.22zm4.5 0c0 1.728.36 3.276 1.08 4.644a8.26 8.26 0 003.06 3.168c1.296.768 2.772 1.152 4.428 1.152 1.68 0 3.156-.384 4.428-1.152a8.004 8.004 0 003.024-3.168c.744-1.368 1.116-2.916 1.116-4.644 0-1.728-.36-3.264-1.08-4.608-.72-1.368-1.728-2.436-3.024-3.204-1.272-.768-2.76-1.152-4.464-1.152-1.656 0-3.132.384-4.428 1.152-1.296.768-2.316 1.836-3.06 3.204-.72 1.344-1.08 2.88-1.08 4.608zm34.325 5.112L76.898 1.8h4.896L69.482 28.404 57.17 1.8h4.896l7.416 17.712zM84.726 1.8h15.336v3.744h-11.16v6.12h10.44v3.672h-10.44v7.92h11.16V27H84.726V1.8zm19.126 12.6c0-1.872.324-3.6.972-5.184.648-1.608 1.56-2.988 2.736-4.14a12.863 12.863 0 014.176-2.736c1.584-.648 3.312-.972 5.184-.972 1.872 0 3.6.324 5.184.972 1.608.648 3 1.56 4.176 2.736 1.2 1.152 2.124 2.532 2.772 4.14.648 1.584.972 3.312.972 5.184 0 1.872-.324 3.612-.972 5.22a12.863 12.863 0 01-2.736 4.176c-1.176 1.176-2.568 2.1-4.176 2.772-1.584.648-3.324.972-5.22.972s-3.636-.324-5.22-.972a12.933 12.933 0 01-4.14-2.772 12.863 12.863 0 01-2.736-4.176c-.648-1.608-.972-3.348-.972-5.22zm4.5 0c0 1.728.36 3.276 1.08 4.644a8.26 8.26 0 003.06 3.168c1.296.768 2.772 1.152 4.428 1.152 1.68 0 3.156-.384 4.428-1.152a8.004 8.004 0 003.024-3.168c.744-1.368 1.116-2.916 1.116-4.644 0-1.728-.36-3.264-1.08-4.608-.72-1.368-1.728-2.436-3.024-3.204-1.272-.768-2.76-1.152-4.464-1.152-1.656 0-3.132.384-4.428 1.152-1.296.768-2.316 1.836-3.06 3.204-.72 1.344-1.08 2.88-1.08 4.608zm44.2-12.6h4.176v26.46l-18.396-18.18V27h-4.176V.54l18.396 18.18V1.8z" fill="#fff"/></svg>