<svg width="1920" height="1076" fill="none" xmlns="http://www.w3.org/2000/svg"><path opacity=".11" d="M0 607.406S100.42 847.35 401.168 798.883c300.747-48.467 442.026 9.577 537.579 114.941 95.553 105.366 352.053 94.326 580.933 52.374 228.87-41.955 363.13 41.792 400.32 109.442.02.01-.37-1075.613-.37-1075.613L.044 0 0 607.406z" fill="url(#paint0_linear_1_4)"/><path d="M.058 607.558s95.26 204.193 401.172 161.147c305.912-43.046 419.616-32.1 544.136 96.892 124.524 128.992 343.944 107.54 572.854 67.066 228.91-40.474 360.16 68.157 401.75 142.967.04-2.4-.07-1075.62-.07-1075.62L.081.021.058 607.558z" fill="url(#paint1_linear_1_4)"/><path opacity=".14" d="M25.718 687.743s174.226-392.046 817.356-255.032C1486.2 569.725 1712.41 510.178 1899.13-31.271" stroke="#CF5DDE" stroke-width="128"/><defs><linearGradient id="paint0_linear_1_4" x1="960" y1="0" x2="960" y2="1075.64" gradientUnits="userSpaceOnUse"><stop stop-color="#8253D8"/><stop offset="1" stop-color="#2E82EF"/></linearGradient><linearGradient id="paint1_linear_1_4" x1="960.019" y1=".01" x2="960.019" y2="1075.63" gradientUnits="userSpaceOnUse"><stop stop-color="#8253D8"/><stop offset="1" stop-color="#D05DDE"/></linearGradient></defs></svg>