<svg width="22" height="21" viewBox="0 0 22 21" fill="none" xmlns="http://www.w3.org/2000/svg">
<path d="M18.2291 0.976562H3.02567C1.30916 0.976562 0.00134277 2.18528 0.00134277 3.77171V17.823C0.00134277 19.4094 1.30916 20.6182 3.02567 20.6182H18.2291C19.9456 20.6182 21.2534 19.4094 21.2534 17.823V3.77171C21.2534 2.18528 19.9456 0.976562 18.2291 0.976562ZM10.6274 16.6898C14.1421 16.6898 17.003 14.1213 17.003 11.024C17.003 10.4952 16.9213 9.89083 16.7578 9.43756H18.556V17.4453C18.556 17.823 18.2291 18.2007 17.7386 18.2007H3.51611C3.10742 18.2007 2.69872 17.8986 2.69872 17.4453V9.36201H4.57872C4.41524 9.89083 4.3335 10.4196 4.3335 10.9485C4.25176 14.1213 7.11261 16.6898 10.6274 16.6898ZM10.6274 14.4235C8.3387 14.4235 6.54044 12.7615 6.54044 10.7218C6.54044 8.68211 8.3387 7.02013 10.6274 7.02013C12.9161 7.02013 14.7143 8.68211 14.7143 10.7218C14.7143 12.8371 12.9161 14.4235 10.6274 14.4235ZM18.4743 6.34023C18.4743 6.7935 18.0656 7.17122 17.5752 7.17122H15.2865C14.7961 7.17122 14.3874 6.7935 14.3874 6.34023V4.30053C14.3874 3.84726 14.7961 3.46953 15.2865 3.46953H17.5752C18.0656 3.46953 18.4743 3.84726 18.4743 4.30053V6.34023Z" fill="#8253D8"/>
</svg>
